<?xml version="1.0" encoding="UTF-8"?>
<svg width="2309px" height="683px" viewBox="0 0 2309 683" version="1.1" xmlns="http://www.w3.org/2000/svg" xmlns:xlink="http://www.w3.org/1999/xlink">
    <!-- Generator: Sketch 52.6 (67491) - http://www.bohemiancoding.com/sketch -->
    <title>Group 10</title>
    <desc>Created with Sketch.</desc>
    <defs>
        <path d="M223.881769,501.922272 C243.850954,398.209611 253.835546,335.103722 253.835546,312.604605 C253.835546,278.855929 210.857487,236.152629 167.494585,196.49264 C124.131683,156.832651 120.61955,111.481978 120.61955,104.400669 C120.61955,97.3193608 116.073271,71.4738138 106.817625,71.4738138 C100.647194,71.4738138 96.6387353,71.8863833 94.7922488,72.7115223 C103.384831,42.9839003 103.384831,25.2500343 94.7922488,19.5099245 C81.9033751,10.8997598 71.5057392,20.8826818 70.3339566,22.3412805 C69.5527683,23.3136796 67.4352133,27.5320997 63.9812916,34.996541 C58.0295365,16.4388696 52.3612319,5.73943059 46.9763776,2.89822399 C38.8990962,-1.36358592 28.6343936,-2.68497918 25.0262037,14.3481881 C21.4180137,31.3813554 -2.70716092,111.036796 0.723571115,163.185971 C4.15430315,215.335145 16.8488129,266.014811 43.5913848,294.926953 C70.3339566,323.839095 138.271421,349.305586 138.271421,387.545499 C138.271421,413.038775 129.945996,437.300877 113.295147,460.331806 C123.04369,472.62538 139.06421,483.1816 161.356708,492.000469 C183.649205,500.819337 204.490892,504.126605 223.881769,501.922272 Z" id="path-1"></path>
        <path d="M223.881769,501.922272 C243.850954,398.209611 253.835546,335.103722 253.835546,312.604605 C253.835546,278.855929 210.857487,236.152629 167.494585,196.49264 C124.131683,156.832651 120.61955,111.481978 120.61955,104.400669 C120.61955,97.3193608 116.073271,71.4738138 106.817625,71.4738138 C100.647194,71.4738138 96.6387353,71.8863833 94.7922488,72.7115223 C103.384831,42.9839003 103.384831,25.2500343 94.7922488,19.5099245 C81.9033751,10.8997598 71.5057392,20.8826818 70.3339566,22.3412805 C69.5527683,23.3136796 67.4352133,27.5320997 63.9812916,34.996541 C58.0295365,16.4388696 52.3612319,5.73943059 46.9763776,2.89822399 C38.8990962,-1.36358592 28.6343936,-2.68497918 25.0262037,14.3481881 C21.4180137,31.3813554 -2.70716092,111.036796 0.723571115,163.185971 C4.15430315,215.335145 16.8488129,266.014811 43.5913848,294.926953 C70.3339566,323.839095 138.271421,349.305586 138.271421,387.545499 C138.271421,413.038775 129.945996,437.300877 113.295147,460.331806 C123.04369,472.62538 139.06421,483.1816 161.356708,492.000469 C183.649205,500.819337 204.490892,504.126605 223.881769,501.922272 Z" id="path-3"></path>
    </defs>
    <g id="Page-1" stroke="none" stroke-width="1" fill="none" fill-rule="evenodd">
        <g id="Group-10" transform="translate(0.000000, -50.000000)">
            <text id="penda" font-family="HelveticaNeue-Bold, Helvetica Neue" font-size="500" font-weight="bold" letter-spacing="2.285714" fill="#00547B">
                <tspan x="837.535715" y="488">penda</tspan>
            </text>
            <g id="Group-9-Copy-3" transform="translate(0.000000, 50.000000)">
                <g id="Group-8-Copy" transform="translate(0.500000, 0.000000)">
                    <g id="Group-2-Copy-19" transform="translate(92.987552, 180.361177)">
                        <g id="Group-3">
                            <g id="Bitmap-Copy-5">
                                <mask id="mask-2" fill="white">
                                    <use xlink:href="#path-1"></use>
                                </mask>
                                <g id="Mask"></g>
                                <path d="M127.311313,485.375954 C157.119628,420.428218 162.179409,377.793198 142.490656,357.470895 C112.957526,326.98744 45.1608012,299.549177 32.6693837,247.356904 C20.1779662,195.164631 5.94841951,162.990995 15.8449407,103.628118 C25.7414619,44.2652408 35.6767101,25.4667029 40.9083822,25.4667029 C43.0597479,25.4667029 48.0429214,24.9728315 50.213278,35.9567428 C53.3207757,51.6834113 52.1139649,83.0897132 40.9083822,106.474763 C21.8765314,146.192535 61.680882,210.900717 76.5694113,221.334986 C86.4950975,228.291165 103.409065,246.891643 127.311313,277.136422 C111.784537,247.309995 101.677576,229.600921 96.9904292,224.0092 C89.9597096,215.621618 47.9707876,160.3953 47.9707876,137.863469 C47.9707876,115.331639 55.1634567,108.426808 67.0896272,114.098948 C79.0157978,119.771087 125.116828,183.942684 167.274741,215.649794 C209.432654,247.356904 245.693493,282.592342 240.900141,316.45046 C236.106788,350.308578 225.287859,429.76294 213.939074,463.876783 C206.373217,486.619345 200.953777,503.200213 197.680755,513.619387 L147.773912,505.677335 L127.311313,485.375954 Z" id="Path" fill="#00547B" mask="url(#mask-2)"></path>
                            </g>
                            <path d="M49.4593249,104.728904 C53.3994472,86.7000768 56.633129,74.3396818 59.1603704,67.6477189 C68.160292,43.8165395 77.3916874,32.2317562 80.2341216,30.9728938 C86.2936678,28.289231 97.025625,39.3020787 90.916115,52.0970345 C86.8431084,60.6270051 80.5104072,78.1709616 71.9180115,104.728904 C68.3256276,102.615435 64.8632559,101.558701 61.5308966,101.558701 C58.1985373,101.558701 54.17468,102.615435 49.4593249,104.728904 Z" id="Path-2-Copy-2" fill="#00547B"></path>
                            <path d="M85.1799484,118.498495 C95.3048492,126.412722 101.8828,132.295304 104.9138,136.146242 C107.9448,139.99718 110.297006,143.080131 111.970416,145.395095 C109.748706,134.697189 108.637851,125.731656 108.637851,118.498495 C108.637851,107.648752 110.420921,87.1326061 101.385492,90.9202785 C95.3618723,93.4453934 89.9600245,102.638132 85.1799484,118.498495 Z" id="Path-3-Copy-2" fill="#00547B"></path>
                        </g>
                        <g id="Group-3-Copy-18" transform="translate(441.463900, 251.500000) scale(-1, 1) translate(-441.463900, -251.500000) translate(314.463900, 0.000000)">
                            <g id="Bitmap-Copy-5">
                                <mask id="mask-4" fill="white">
                                    <use xlink:href="#path-3"></use>
                                </mask>
                                <g id="Mask"></g>
                                <g id="Group-11" mask="url(#mask-4)" fill="#00547B">
                                    <g transform="translate(21.697095, 25.411712)">
                                        <path d="M114.912972,459.964242 C144.721288,395.016506 149.781069,352.381486 130.092316,332.059183 C100.559186,301.575728 32.7624609,274.137464 20.2710434,221.945192 C7.77962591,169.752919 -6.44992074,137.579283 3.44660043,78.2164057 C13.3431216,18.8535286 23.2783698,0.0549906809 28.510042,0.0549906809 C30.6614076,0.0549906809 35.6445812,-0.4388807 37.8149378,10.5450306 C40.9224354,26.271699 39.7156246,57.678001 28.510042,81.0630506 C9.47819113,120.780823 49.2825417,185.489005 64.1710711,195.923273 C74.0967573,202.879452 91.0107244,221.479931 114.912972,251.724709 C99.3861965,221.898283 89.2792354,204.189209 84.592089,198.597488 C77.5613694,190.209906 35.5724474,134.983588 35.5724474,112.451757 C35.5724474,89.9199264 42.7651164,83.0150957 54.691287,88.6872353 C66.6174576,94.359375 112.718488,158.530972 154.876401,190.238082 C197.034314,221.945192 233.295153,257.18063 228.501801,291.038748 C223.708448,324.896866 212.889519,404.351227 201.540734,438.465071 C193.974877,461.207633 188.555437,477.788501 185.282415,488.207675 L135.375572,480.265623 L114.912972,459.964242 Z" id="Path"></path>
                                        <path d="M37.0609846,79.3171917 C41.0011069,61.2883646 44.2347888,48.9279695 46.7620301,42.2360066 C55.7619518,18.4048273 64.9933471,6.82004392 67.8357813,5.56118153 C73.8953275,2.87751876 84.6272847,13.8903664 78.5177748,26.6853223 C74.4447681,35.2152928 68.1120669,52.7592493 59.5196713,79.3171917 C55.9272873,77.2037231 52.4649157,76.1469888 49.1325564,76.1469888 C45.800197,76.1469888 41.7763398,77.2037231 37.0609846,79.3171917 Z" id="Path-2-Copy-2"></path>
                                        <path d="M72.7816082,93.0867823 C82.9065089,101.00101 89.4844594,106.883592 92.5154597,110.73453 C95.54646,114.585468 97.8986654,117.668419 99.5720758,119.983382 C97.3503658,109.285477 96.2395107,100.319944 96.2395107,93.0867823 C96.2395107,82.2370401 98.0225811,61.7208938 88.9871517,65.5085662 C82.9635321,68.0336811 77.5616842,77.2264198 72.7816082,93.0867823 Z" id="Path-3-Copy-2"></path>
                                    </g>
                                </g>
                            </g>
                        </g>
                    </g>
                    <path d="M373.771263,161.966641 C337.683641,106.417335 291.362594,94.2627096 234.808121,125.502765 C149.976412,172.362849 227.402592,283.200951 281.495178,323.027207 C317.556903,349.578044 349.989445,373.619649 378.792806,395.152021 C400.866692,380.508336 430.026126,356.504778 466.271106,323.141347 C520.638577,273.096201 549.241632,242.569926 549.24085,183.679708 C549.240068,124.789489 481.352235,101.791993 441.126996,107.430959 C414.310171,111.190269 391.85826,129.36883 373.771263,161.966641 Z" id="Mask-Copy-11" fill="#00547B" transform="translate(373.187346, 250.878490) rotate(1.000000) translate(-373.187346, -250.878490) "></path>
                    <path d="M225.964764,560.570034 C227.249474,563.527294 227.249474,568.66606 225.964764,575.986334 C224.680055,583.306607 224.004794,588.561693 223.938983,591.751591 C81.6837729,581.966831 7.24994354,494.930858 0.637495404,330.643672 C-9.2811768,84.2128919 97.38919,4.97864808e-14 261.457891,3.87150979e-32 C425.526592,3.87150979e-32 385.120079,-4.83938724e-32 487.059943,3.87150979e-32 C588.999806,1.25824068e-31 745.777744,51.9469826 745.777744,243.46525 C745.777744,434.983518 746.397661,317.622773 746.397661,345.114021 C746.397661,372.60527 716.857238,527.373718 626.729286,560.570034 C566.643985,582.700911 529.870373,593.094763 516.40845,591.751591 L516.40845,560.570034 C579.794295,555.068885 627.440994,535.103666 659.348547,500.674378 C707.209876,449.030446 723.593745,367.141147 715.401811,243.46525 C707.209876,119.789354 632.276716,29.4408202 487.059943,29.4408202 C434.925918,29.4408202 379.697374,29.4408202 261.457891,29.4408202 C143.218408,29.4408202 28.6454372,114.778408 28.6454372,243.46525 C28.6454372,439.232504 65.8340506,494.576388 104.526229,516.301529 C130.321015,530.784956 170.800527,545.541125 225.964764,560.570034 Z" id="Path-10" fill="#00547B"></path>
                    <polygon id="Path-11" fill="#00547B" points="336.005391 570.214031 409.178009 570.214031 415.784879 601.72768 330.415768 601.72768"></polygon>
                </g>
            </g>
        </g>
    </g>
</svg>