<?xml version="1.0" encoding="UTF-8"?>
<svg width="544px" height="253px" viewBox="0 0 544 253" version="1.1" xmlns="http://www.w3.org/2000/svg" xmlns:xlink="http://www.w3.org/1999/xlink">
    <!-- Generator: Sketch 52.6 (67491) - http://www.bohemiancoding.com/sketch -->
    <title>Group 5 Copy 2</title>
    <desc>Created with Sketch.</desc>
    <g id="Page-1" stroke="none" stroke-width="1" fill="none" fill-rule="evenodd">
        <g id="Group-5-Copy-2" fill="#056593">
            <g id="Group-3-Copy">
                <path d="M312.600957,133.914573 C310.21489,137.166404 307.075375,141.106063 303.182317,145.733668 C299.289259,150.361274 295.019518,154.863741 290.372966,159.241206 C285.726413,163.618671 280.985745,167.33946 276.150819,170.403685 C271.315893,173.46791 266.763595,175 262.49379,175 C259.856558,175 257.344945,174.530993 254.958878,173.592965 C252.57281,172.654937 250.626311,171.185381 249.119321,169.184255 C247.612331,167.183128 246.576291,164.587956 246.011169,161.39866 C245.446048,158.209364 245.603024,154.426041 246.482101,150.048576 C247.361179,146.296464 248.460009,142.606942 249.778625,138.979899 C251.097242,135.352857 252.72979,131.538267 254.676319,127.536013 C256.622847,123.53376 258.851903,119.187628 261.363553,114.497487 C263.875203,109.807347 266.763557,104.523201 270.028702,98.6448911 C271.535693,96.1434827 272.760104,93.7984476 273.701972,91.6097152 C274.643841,89.4209829 275.240349,87.6387562 275.491514,86.2629816 L266.449619,93.9547739 C261.175154,98.3322385 256.308905,102.709638 251.850726,107.087102 C247.392548,111.464567 242.84025,116.279706 238.193698,121.532663 C233.923893,129.287029 230.093684,137.197615 226.702956,145.264657 C223.312229,153.331699 220.549455,161.492421 218.414553,169.747069 C217.912223,171.122843 216.593626,171.748186 214.458724,171.623116 C212.323821,171.498045 210.094765,170.90397 207.771489,169.840871 C205.448213,168.777772 203.376132,167.433286 201.555186,165.80737 C199.73424,164.181455 198.886571,162.555564 199.012153,160.929648 C200.142396,155.301479 201.617968,149.829731 203.438914,144.514238 C205.259861,139.198745 207.300546,133.945866 209.561031,128.755444 C211.821516,123.565022 214.238943,118.437211 216.813384,113.371859 C219.387825,108.306507 221.993623,103.209964 224.630855,98.0820771 C227.644835,92.078697 230.59598,86.2317426 233.484377,80.5410385 C236.372775,74.8503345 238.947178,69.3785857 241.207663,64.1256281 C242.714653,63.3752056 244.566967,63.3439385 246.764661,64.0318258 C248.962354,64.7197131 251.06583,65.8140628 253.07515,67.3149079 C255.08447,68.8157529 256.842598,70.6605139 258.349588,72.8492462 C259.856578,75.0379786 260.798433,77.3204795 261.17518,79.6968174 C266.575228,75.1942823 272.037985,71.3796918 277.563615,68.2529313 C283.089245,65.1261709 288.614792,63.3752113 294.140422,63 C295.898577,63 297.625311,63.7816784 299.320674,65.3450586 C301.016038,66.9084389 302.49161,68.8157341 303.747435,71.0670017 C305.00326,73.3182692 305.819534,75.7571058 306.196282,78.3835846 C306.573029,81.0100634 306.321868,83.3238314 305.442791,85.3249581 C302.177646,91.7035495 298.97534,97.6755724 295.835777,103.241206 C292.696215,108.80684 289.996232,113.590711 287.735747,117.592965 C285.726427,121.094937 283.874112,124.315452 282.178749,127.254606 C280.483385,130.193761 278.976418,133.101605 277.657801,135.978224 C276.339185,138.854844 275.146169,141.793955 274.078718,144.795645 C273.011267,147.797335 272.038017,151.049117 271.158939,154.551089 C271.284522,154.300948 271.724054,153.925742 272.477549,153.425461 L272.289176,153.425461 C276.056651,151.549404 280.703134,148.360157 286.228764,143.857621 C291.754394,139.355086 297.531103,133.226728 303.559063,125.472362 C305.191635,123.471235 306.729998,121.532673 308.174196,119.656616 C309.618395,117.78056 311.031177,115.904532 312.412585,114.028476 L315.991668,108.58794 C316.493998,107.962588 317.435853,107.806252 318.81726,108.118928 C320.198668,108.431604 321.485869,109.02568 322.678903,109.901173 C323.871937,110.776665 324.813791,111.808481 325.504495,112.99665 C326.195199,114.184819 326.163804,115.216634 325.410309,116.092127 L325.598681,115.716918 L312.78933,133.726968 L312.600957,133.914573 Z" id="penda"></path>
                <path d="M213.666191,96.2278259 C206.124062,107.507907 197.230768,116.907834 186.986042,124.427888 C176.741316,131.947942 165.773967,137.525232 154.083667,141.159925 C153.70656,144.54395 153.926536,147.739925 154.7436,150.747946 C155.560664,153.755968 157.414743,155.573287 160.305892,156.199958 L159.928788,156.011958 C162.317129,156.638629 165.23966,156.450631 168.696469,155.447957 C172.153279,154.445283 175.924287,152.659297 180.009607,150.089945 C184.094927,147.520593 188.400162,144.167953 192.925439,140.031923 C197.450717,135.895893 201.975927,131.007931 206.501204,125.36789 C208.889545,122.359869 211.183575,119.257893 213.383363,116.06187 C215.583151,112.865847 217.68863,109.826537 219.699865,106.94385 C221.082589,105.314504 222.622417,104.437178 224.319396,104.311844 C226.016375,104.18651 227.461928,104.59384 228.656099,105.533846 C229.850269,106.473853 230.604471,107.789843 230.918726,109.481855 C231.232982,111.173867 230.635905,113.085186 229.12748,115.215868 L224.413672,121.983883 C220.391203,127.623923 215.520318,133.859208 209.800869,140.689924 C204.081421,147.52064 197.576432,154.131922 190.285707,160.523968 C186.011834,164.033327 181.863725,166.759305 177.841256,168.701986 C173.818787,170.644667 170.110629,172.085989 166.71667,173.025996 C163.322712,173.966002 160.274481,174.529998 157.571884,174.717999 C154.869288,174.906001 152.763808,175 151.255382,175 C141.450614,175 134.379974,172.180022 130.043249,166.539981 C125.706525,160.899941 124.166697,153.192001 125.423718,143.41593 C126.555038,134.893202 129.289018,126.5586 133.625743,118.411875 C137.962467,110.265149 144.090356,101.429218 152.009592,91.9038163 C154.775039,88.7704604 158.231796,85.4178198 162.379968,81.8457941 C166.528139,78.2737683 171.053349,74.9837939 175.955733,71.9757723 C180.858117,68.9677506 185.980403,66.5237696 191.322745,64.6437561 C196.665086,62.7637425 201.787372,61.886416 206.689757,62.0117502 C211.843545,62.1370845 215.740254,63.8604044 218.379999,67.1817617 C221.019744,70.5031189 221.836796,74.9837507 220.831179,80.6237914 C220.454072,83.1304761 219.668445,85.6684563 218.474275,88.2378082 C217.280104,90.8071601 215.614576,93.5331388 213.477639,96.4158263 L213.666191,96.2278259 Z M203.69007,81.1651052 C199.16447,82.0319012 194.701793,84.0131196 190.301905,87.1088197 C185.902017,90.2045199 181.753613,93.8573912 177.856569,98.0675434 C173.959526,102.277696 170.376813,106.766394 167.108325,111.533772 C163.839836,116.30115 161.137089,120.789848 159,125 C167.925487,121.408988 176.222295,116.548812 183.890672,110.419325 C191.559048,104.289839 198.095927,96.9531397 203.501504,88.4090073 L203.501504,88.5947484 C204.25577,87.6041243 204.790035,86.6135151 205.104312,85.6228911 C205.41859,84.632267 205.701436,83.765484 205.952858,83.022516 C206.20428,81.2889239 205.450025,80.6697932 203.69007,81.1651052 Z" id="Combined-Shape"></path>
                <path d="M388.869657,131.034884 C386.744774,134.664961 384.963649,138.294984 383.526228,141.925061 C382.088808,145.555138 381.120126,148.684467 380.620153,151.313144 C380.370167,152.439719 380.057689,153.128172 379.682709,153.378522 L381.557597,153.378522 C385.30739,152.126771 388.932136,150.061414 392.431943,147.182387 C395.93175,144.303361 399.337761,141.017565 402.650078,137.3249 C405.962396,133.632236 409.149672,129.68928 412.212003,125.495915 C415.274335,121.302551 418.180381,117.265715 420.930229,113.385288 C421.930174,112.383888 422.680121,111.507675 423.180094,110.756625 C423.680066,110.005575 424.180031,109.191949 424.680004,108.315723 C425.179976,107.689848 426.11741,107.533382 427.492335,107.846319 C428.867259,108.159257 430.179667,108.75383 431.429598,109.630055 C432.679529,110.506281 433.679459,111.538959 434.429417,112.728122 C435.179376,113.917286 435.179376,114.949964 434.429417,115.82619 L428.992244,123.336656 L428.992244,123.524418 C423.617541,130.909747 418.024183,138.201085 412.212003,145.398652 C406.399824,152.596218 399.931527,159.07393 392.80692,164.831983 C391.681982,165.833384 390.275831,166.928649 388.588424,168.117813 C386.901017,169.306976 385.026148,170.433534 382.963762,171.497522 C380.901376,172.561511 378.682781,173.437723 376.307912,174.126186 C373.933043,174.814649 371.495714,175.096288 368.995852,174.971113 C362.996183,174.470413 358.777729,172.342469 356.340363,168.587217 C353.902997,164.831965 352.996811,160.13797 353.621777,154.505092 C347.997087,159.762445 342.309985,164.299973 336.560302,168.117813 C330.810619,171.935652 325.311005,173.90713 320.061295,174.032305 C315.311556,173.531605 311.530572,172.185993 308.718227,169.995429 C305.905882,167.804865 303.812278,165.207522 302.437354,162.20332 C301.06243,159.199119 300.281235,155.975909 300.093745,152.533595 C299.906256,149.09128 299.999999,145.868071 300.374978,142.863869 C300.874951,140.110018 301.437411,137.8569 302.062377,136.104449 C303.312308,131.472972 305.374663,126.403458 308.249505,120.895755 C311.124346,115.388052 314.561605,109.880431 318.561385,104.372729 C322.561164,98.8650256 326.967105,93.5451651 331.77934,88.4129873 C336.591575,83.2808096 341.684967,78.7119882 347.059671,74.7063861 C352.434375,70.7007839 357.902741,67.5088676 363.464935,65.1305413 C369.027128,62.7522151 374.55799,61.5630698 380.057687,61.5630698 C381.682597,61.5630698 383.244988,61.688243 384.744905,61.9385931 C386.244822,62.1889432 387.869708,62.5644628 389.619612,63.0651631 C392.994426,64.3169137 395.556746,66.3822713 397.30665,69.2612979 L398.994048,66.8203963 L406.11862,55.9302199 C409.243448,51.2987425 412.274485,46.4795747 415.211823,41.472572 C418.149161,36.4655693 420.898968,31.5525217 423.461327,26.7332816 C426.023686,21.9140415 428.336024,17.2826335 430.39841,12.8389187 C432.460796,8.3952038 434.241921,4.35836846 435.741839,0.728291521 C437.616735,-0.273109012 439.929073,-0.241815715 442.678921,0.822172352 C445.42877,1.88616042 447.928594,3.51341188 450.17847,5.70397554 C452.428346,7.89453921 454.115728,10.4918829 455.240666,13.4960845 C456.365604,16.5002861 456.240613,19.3792694 454.865689,22.1331209 C454.11573,23.6352217 452.740826,26.1386855 450.740937,29.6435874 C448.741047,33.1484892 446.397461,37.0914447 443.710109,41.472572 C441.022758,45.8536994 438.147959,50.4538141 435.085628,55.2730541 C432.023297,60.0922942 429.117251,64.6298223 426.367402,68.8857746 L419.805297,79.2126659 L419.992786,79.0249043 C414.743075,86.9109335 409.493443,95.1097774 404.243733,103.621682 C398.994022,112.133586 393.994373,121.271229 389.244634,131.034884 L388.869657,131.034884 Z M335.079618,150.502672 C336.833342,150.005342 339.150729,148.606623 342.031847,146.306474 C344.912966,144.006324 347.919305,141.271052 351.050955,138.100575 C354.182606,134.930099 357.282893,131.573174 360.351911,128.0297 C363.420928,124.486226 366.082791,121.284714 368.33758,118.425069 L371.531847,112.084147 C375.916158,103.753875 380.738827,95.4858934 386,87.2799539 C385.749468,85.4149677 385.217095,83.7986705 384.402866,82.4310139 C383.588637,81.0633573 382.116783,80.2552087 379.987261,80.0065439 C375.352418,79.8822115 370.592381,81.5295913 365.707006,84.9487328 C360.821632,88.3678742 356.124226,92.6883609 351.61465,97.9103224 C347.105073,103.132284 343.002672,108.727159 339.307325,114.695115 C335.611977,120.663071 332.699586,126.07145 330.570064,130.920414 C329.943734,132.288071 329.317413,133.997616 328.691083,136.049101 C328.064753,138.100585 327.626328,140.120957 327.375796,142.110276 C327.125264,143.477932 327,144.783403 327,146.026727 C327,147.270051 327.281844,148.326861 327.845541,149.197188 C328.409238,150.067515 329.254771,150.627002 330.382166,150.875667 C331.50956,151.124332 333.075362,151.000001 335.079618,150.502672 Z" id="Combined-Shape"></path>
                <path d="M507.812498,95.1058058 C507.687498,95.8539634 507.218752,96.4462459 506.406248,96.8826711 C505.593744,97.3190964 504.625004,97.630824 503.499998,97.8178634 C502.374993,98.0049028 501.218754,98.0984211 500.031248,98.0984211 C498.843742,98.0984211 497.812503,97.9113845 496.937498,97.5373057 C498.687507,98.659542 500.312491,99.9687981 501.812498,101.465113 C503.312506,102.961428 504.562493,104.613585 505.562498,106.421632 C506.562503,108.22968 507.218747,110.068873 507.531248,111.939266 C507.84375,113.80966 507.625002,115.617681 506.874998,117.363382 C506.374996,118.236232 505.812501,119.202588 505.187498,120.262478 C504.562495,121.322367 503.937501,122.413414 503.312498,123.53565 C501.937491,125.904816 500.531256,128.460983 499.093748,131.204227 C497.656241,133.947471 496.312505,136.628329 495.062499,139.24688 C493.812492,141.865432 492.718753,144.32808 491.781249,146.634899 C490.843744,148.941718 490.25,150.905602 489.999999,152.52661 C489.999999,152.775996 489.90625,152.963033 489.718749,153.087726 C489.531248,153.212419 489.374999,153.33711 489.249999,153.461803 L490.562499,153.461803 C494.312517,152.214873 497.937481,150.157471 501.437498,147.289534 C504.937516,144.421596 508.343732,141.148456 511.656248,137.470015 C514.968765,133.791574 518.156233,129.863806 521.218748,125.686593 C524.281263,121.50938 527.187484,117.488093 529.937498,113.622612 C530.937503,112.625069 531.687495,111.752232 532.187498,111.004074 C532.6875,110.255917 533.187495,109.445425 533.687497,108.572574 C534.1875,107.94911 535.124991,107.793246 536.499997,108.104978 C537.875004,108.41671 539.187491,109.008993 540.437497,109.881843 C541.687503,110.754694 542.687493,111.783395 543.437497,112.967978 C544.187501,114.152561 544.187501,115.181262 543.437497,116.054112 L537.999997,123.53565 L537.999997,123.722689 C532.624971,131.079571 527.031277,138.342825 521.218748,145.512668 C515.406219,152.682512 508.937534,159.135274 501.812498,164.871148 C500.687493,165.868691 499.281257,166.959738 497.593748,168.144321 C495.90624,169.328904 494.031259,170.451123 491.968749,171.511013 C489.906238,172.570903 487.687511,173.44374 485.312499,174.129551 C482.937487,174.815362 480.500011,175.095917 477.999999,174.971224 C471.999969,174.472453 467.781261,172.352705 465.343749,168.611917 C462.906237,164.871129 461.999996,160.195215 462.624999,154.584033 C456.999971,159.821136 451.312528,164.341187 445.5625,168.144321 C439.812471,171.947455 434.312526,173.911339 429.0625,174.036032 C424.312477,173.53726 420.531265,172.196832 417.718751,170.014705 C414.906237,167.832579 412.812508,165.24524 411.437501,162.25261 C410.062494,159.25998 409.281252,156.049185 409.093751,152.62013 C408.90625,149.191074 408.999999,145.980279 409.375001,142.987649 C409.875003,140.244405 410.437498,137.999966 411.062501,136.254265 C412.312507,131.640627 414.374986,126.590639 417.250001,121.104151 C420.125015,115.617662 423.56248,110.131256 427.5625,104.644767 C431.56252,99.1582782 435.968726,93.8589084 440.78125,88.7464985 C445.593774,83.6340886 450.687473,79.0828651 456.0625,75.0926916 C461.437526,71.102518 466.906221,67.9228961 472.468749,65.5537306 C478.031277,63.184565 483.562471,62 489.062499,62 C490.687507,62 492.249991,62.1246911 493.749999,62.3740769 C495.250006,62.6234628 496.87499,62.9975359 498.624998,63.4963076 C501.625013,64.493851 503.90624,66.0836619 505.468748,68.2657881 C507.031256,70.4479143 508.093745,73.0040809 508.656248,75.9343646 C509.218751,78.8646483 509.406249,81.9819247 509.218748,85.2862872 C509.031247,88.5906496 508.562502,91.8637898 507.812498,95.1058058 Z M485.447619,95.112857 C486.696303,94.4911949 488.163484,94.3668644 489.849206,94.7398616 C491.534929,95.1128589 493.251843,95.7966769 495,96.7913362 C494.375658,96.1696742 494.188359,95.4858561 494.438095,94.7398616 C494.562964,94.3668644 494.59418,93.9317074 494.531746,93.4343778 C494.469312,92.9370481 494.500528,92.4397259 494.625397,91.9423962 C494.750265,90.6990721 494.812698,89.3936013 494.812698,88.0259447 C494.812698,86.6582881 494.625399,85.3838999 494.250794,84.202742 C493.876189,83.021584 493.251856,82.0580222 492.377778,81.3120277 C491.503699,80.5660332 490.317468,80.1308763 488.819048,80.0065439 C484.198919,79.8822115 479.453993,81.5295913 474.584127,84.9487328 C469.714261,88.3678742 465.031769,92.6883609 460.536508,97.9103224 C456.041247,103.132284 451.95187,108.727159 448.268254,114.695115 C444.584638,120.663071 441.681492,126.07145 439.55873,130.920414 C438.934388,132.288071 438.310056,133.997616 437.685714,136.049101 C437.061373,138.100585 436.62434,140.120957 436.374603,142.110276 C436.124866,143.477932 436,144.783403 436,146.026727 C436,147.270051 436.28095,148.326861 436.842857,149.197188 C437.404765,150.067515 438.247613,150.627002 439.371429,150.875667 C440.495244,151.124332 442.056075,151.000001 444.053968,150.502672 C445.926993,150.005342 448.299457,148.575541 451.171429,146.213225 C454.043401,143.850909 457.071413,141.084554 460.255556,137.914077 C463.439698,134.743601 466.56136,131.355593 469.620635,127.749953 C472.679909,124.144313 475.270889,120.911719 477.393651,118.052073 C479.266676,114.322101 480.98359,110.685432 482.544444,107.141958 C484.105299,103.598484 485.19788,100.583468 485.822222,98.0968201 L485.447619,95.112857 Z" id="Combined-Shape"></path>
                <path d="M58.4110614,63.7901112 C59.9184512,63.0412498 61.6770462,62.9476435 63.6868993,63.5092896 C65.6967523,64.0709356 67.7065752,65.0694025 69.7164282,66.5047202 C71.7262812,67.9400379 73.5162797,69.6561529 75.0864774,71.6531166 C76.656675,73.6500804 77.69299,75.7718225 78.1954532,78.0184067 C84.7274756,73.2756178 91.3850138,69.4377607 98.1682678,66.5047202 C104.951522,63.5716797 111.169411,62.4796065 116.822123,63.2284679 C120.716213,63.8525191 123.887965,65.0381986 126.337473,66.7855418 C128.786982,68.5328851 130.639787,70.7170314 131.895945,73.3380464 C133.152103,75.9590613 133.84298,78.8608557 133.968596,82.0435167 C134.094212,85.2261776 133.842984,88.5648013 133.214905,92.0594879 C132.209978,97.9255689 130.51419,103.541945 128.12749,108.908785 C124.610247,116.64702 120.119549,124.229128 114.655261,131.655337 C109.190973,139.081546 103.224311,145.789995 96.7550969,151.780886 C90.2858825,157.771778 83.4713268,162.73291 76.3112254,166.664432 C69.151124,170.595955 62.116744,172.936111 55.2078742,173.684973 C49.4295468,173.560163 44.8446383,172.280877 41.4530113,169.847077 C38.0613844,167.413278 35.6747197,164.386675 34.2929458,160.767178 C32.5343244,164.636295 31.0269572,168.505355 29.7707991,172.374472 C28.5146409,176.243589 27.3213086,180.237457 26.1907663,184.356194 C25.0602239,188.474932 23.9925055,192.718417 22.987579,197.086775 C21.9826525,201.455133 20.8521271,206.010638 19.595969,210.753427 C19.2191216,212.25115 17.9629823,213 15.8275134,213 C13.6920446,213 11.4623973,212.469564 9.13850477,211.408677 C6.81461222,210.34779 4.71057889,209.006101 2.82634168,207.383568 C0.942104473,205.761035 0,204.076122 0,202.328778 C0.502463256,192.843201 2.13544434,183.638584 4.89899225,174.714652 C7.66254016,165.79072 11.0541163,157.022933 15.0738223,148.411027 C19.0935284,139.799121 23.4900159,131.249748 28.2634168,122.762652 C33.0368178,114.275556 37.8101471,105.663779 42.583548,96.9270627 C45.4727117,90.9361714 48.3304286,85.1325826 51.1567845,79.5161221 C53.9831403,73.8996615 56.4012084,68.6577103 58.4110614,63.7901112 Z M50.8946319,133.317519 C50.645132,133.566823 50.5203839,133.753797 50.5203839,133.878449 C50.2708841,134.62636 50.0525749,135.436584 49.86545,136.309147 C49.6783251,137.181709 49.460016,138.054259 49.2105161,138.926821 C48.8362663,141.66916 48.9610144,144.130996 49.5847641,146.312402 C50.2085138,148.493809 51.9549867,149.709145 54.8242354,149.958449 C57.5687341,150.207753 60.7498098,149.335203 64.3675581,147.340775 C67.9853064,145.346346 71.7277484,142.63521 75.5949966,139.207286 C79.4622447,135.779362 83.3294349,131.821727 87.196683,127.334263 C91.0639312,122.846799 94.5880642,118.32824 97.7691876,113.778449 C100.950311,109.228659 103.601208,104.772425 105.721957,100.409612 C107.842706,96.0468 109.214934,92.2449776 109.838684,89.0040312 C110.462434,85.1398259 109.277327,83.1454273 106.283328,83.0207755 C103.53883,82.8961237 100.513689,83.3323984 97.2078157,84.3296127 C93.9019423,85.326827 90.5025574,86.7914635 87.0095591,88.7235661 C83.5165607,90.6556688 80.0236148,92.9928547 76.5306165,95.7351939 C73.0376181,98.4775332 69.7941683,101.406806 66.8001698,104.523101 L58.8474008,118.826822 C56.0405272,123.875219 53.4520047,128.705403 51.0817559,133.317519 L50.8946319,133.317519 Z" id="Combined-Shape"></path>
            </g>
            <text id="HOMECARE-Copy" font-family="Arial-BoldMT, Arial" font-size="54" font-weight="bold" letter-spacing="3.085712">
                <tspan x="102.152757" y="252">HOMECARE</tspan>
            </text>
        </g>
    </g>
</svg>