<?xml version="1.0" encoding="UTF-8"?>
<svg width="2369px" height="684px" viewBox="0 0 2369 684" version="1.1" xmlns="http://www.w3.org/2000/svg" xmlns:xlink="http://www.w3.org/1999/xlink">
    <!-- Generator: Sketch 52.6 (67491) - http://www.bohemiancoding.com/sketch -->
    <title>Group 10</title>
    <desc>Created with Sketch.</desc>
    <defs>
        <path d="M224.47591,503.264246 C244.498088,399.274292 254.509178,335.999678 254.509178,313.440406 C254.509178,279.601497 211.417063,236.784023 167.939084,197.017996 C124.461105,157.25197 120.939652,111.780044 120.939652,104.679802 C120.939652,97.5795605 116.381307,71.6649111 107.101099,71.6649111 C100.914293,71.6649111 96.8951965,72.0785837 95.0438097,72.9059289 C103.659195,43.098825 103.659195,25.3175446 95.0438097,19.5620876 C82.1207313,10.9289021 71.695502,20.9385152 70.5206098,22.4010137 C69.7373483,23.3760126 67.6141737,27.6057115 64.151086,35.0901101 C58.1835361,16.4828217 52.5001888,5.75477593 47.1010441,2.90597288 C39.0023272,-1.3672317 28.710384,-2.69215793 25.0926185,14.3865504 C21.4748531,31.4652587 -2.71434522,111.333672 0.725491337,163.622276 C4.1653279,215.91088 16.8935265,266.726047 43.7070682,295.71549 C70.5206098,324.704933 138.638367,350.239513 138.638367,388.581668 C138.638367,414.143104 130.290848,438.470075 113.595811,461.562581 C123.370225,473.889023 139.433261,484.473468 161.784918,493.315915 C184.136576,502.158362 205.033573,505.474473 224.47591,503.264246 Z" id="path-1"></path>
        <path d="M224.47591,503.264246 C244.498088,399.274292 254.509178,335.999678 254.509178,313.440406 C254.509178,279.601497 211.417063,236.784023 167.939084,197.017996 C124.461105,157.25197 120.939652,111.780044 120.939652,104.679802 C120.939652,97.5795605 116.381307,71.6649111 107.101099,71.6649111 C100.914293,71.6649111 96.8951965,72.0785837 95.0438097,72.9059289 C103.659195,43.098825 103.659195,25.3175446 95.0438097,19.5620876 C82.1207313,10.9289021 71.695502,20.9385152 70.5206098,22.4010137 C69.7373483,23.3760126 67.6141737,27.6057115 64.151086,35.0901101 C58.1835361,16.4828217 52.5001888,5.75477593 47.1010441,2.90597288 C39.0023272,-1.3672317 28.710384,-2.69215793 25.0926185,14.3865504 C21.4748531,31.4652587 -2.71434522,111.333672 0.725491337,163.622276 C4.1653279,215.91088 16.8935265,266.726047 43.7070682,295.71549 C70.5206098,324.704933 138.638367,350.239513 138.638367,388.581668 C138.638367,414.143104 130.290848,438.470075 113.595811,461.562581 C123.370225,473.889023 139.433261,484.473468 161.784918,493.315915 C184.136576,502.158362 205.033573,505.474473 224.47591,503.264246 Z" id="path-3"></path>
    </defs>
    <g id="Page-1" stroke="none" stroke-width="1" fill="none" fill-rule="evenodd">
        <g id="Group-10" transform="translate(0.000000, -50.000000)">
            <g id="Group-8-Copy-2" transform="translate(0.000000, 50.000000)">
                <g id="Group-2-Copy-19" transform="translate(86.000000, 180.000000)">
                    <g id="Group-3">
                        <g id="Bitmap-Copy-5">
                            <mask id="mask-2" fill="white">
                                <use xlink:href="#path-1"></use>
                            </mask>
                            <g id="Mask"></g>
                            <path d="M127.649173,486.673688 C157.536594,421.552304 162.609803,378.803292 142.868799,358.426654 C113.257294,327.861696 45.2806495,300.350072 32.7560821,248.018254 C20.2315147,195.686437 5.9642055,163.426779 15.8869902,103.905185 C25.8097749,44.3835914 35.7713894,25.5347925 41.0169454,25.5347925 C43.1740204,25.5347925 48.1704183,25.0396006 50.3465347,36.0528792 C53.462279,51.8215956 52.2522656,83.3118676 41.0169454,106.759441 C21.9345876,146.583405 61.8445715,211.464596 76.7726122,221.926762 C86.7246393,228.901539 103.683493,247.55175 127.649173,277.877393 C112.081192,247.97122 101.947409,230.214798 97.2478237,224.608126 C90.1984458,216.198119 48.0980931,160.824144 48.0980931,138.232071 C48.0980931,115.639997 55.3098502,108.716705 67.2676706,114.40401 C79.225491,120.091315 125.448865,184.434486 167.718657,216.22637 C209.988449,248.018254 246.345518,283.3479 241.539445,317.296544 C236.733372,351.245187 225.885731,430.911983 214.506828,465.117036 C206.920893,487.920404 201.487071,504.545604 198.205363,514.992635 L148.166076,507.029349 L127.649173,486.673688 Z" id="Path" fill="#00547B" mask="url(#mask-2)"></path>
                        </g>
                        <path d="M49.5905807,101.901639 C53.5411593,83.8246091 56.7834228,71.4311665 59.3173709,64.7213115 C68.3411767,40.8264155 77.5970704,29.2106582 80.4470479,27.9484301 C86.522675,25.2575921 97.2831128,36.2998844 91.1573894,49.1290498 C87.0735737,57.6818266 80.7240667,75.2726898 72.1088684,101.901639 C68.506951,99.78252 65.0353909,98.7229604 61.6941881,98.7229604 C58.3529853,98.7229604 54.3184495,99.78252 49.5905807,101.901639 Z" id="Path-2-Copy-2" fill="#00547B"></path>
                        <path d="M85.4060001,110.736405 C95.5577704,118.671793 102.153178,124.570103 105.192222,128.431337 C108.231266,132.292571 110.589713,135.383765 112.267565,137.704918 C110.039959,126.97841 108.926156,117.988906 108.926156,110.736405 C108.926156,99.8576545 110.713958,79.2866549 101.65455,83.0844542 C95.6149449,85.6163205 90.1987616,94.8336375 85.4060001,110.736405 Z" id="Path-3-Copy-2" fill="#00547B"></path>
                    </g>
                    <g id="Group-3-Copy-18" transform="translate(437.500000, 252.000000) scale(-1, 1) translate(-437.500000, -252.000000) translate(310.000000, 0.000000)">
                        <g id="Bitmap-Copy-5">
                            <mask id="mask-4" fill="white">
                                <use xlink:href="#path-3"></use>
                            </mask>
                            <g id="Mask"></g>
                            <path d="M127.649173,486.673688 C157.536594,421.552304 162.609803,378.803292 142.868799,358.426654 C113.257294,327.861696 45.2806495,300.350072 32.7560821,248.018254 C20.2315147,195.686437 5.9642055,163.426779 15.8869902,103.905185 C25.8097749,44.3835914 35.7713894,25.5347925 41.0169454,25.5347925 C43.1740204,25.5347925 48.1704183,25.0396006 50.3465347,36.0528792 C53.462279,51.8215956 52.2522656,83.3118676 41.0169454,106.759441 C21.9345876,146.583405 61.8445715,211.464596 76.7726122,221.926762 C86.7246393,228.901539 103.683493,247.55175 127.649173,277.877393 C112.081192,247.97122 101.947409,230.214798 97.2478237,224.608126 C90.1984458,216.198119 48.0980931,160.824144 48.0980931,138.232071 C48.0980931,115.639997 55.3098502,108.716705 67.2676706,114.40401 C79.225491,120.091315 125.448865,184.434486 167.718657,216.22637 C209.988449,248.018254 246.345518,283.3479 241.539445,317.296544 C236.733372,351.245187 225.885731,430.911983 214.506828,465.117036 C206.920893,487.920404 201.487071,504.545604 198.205363,514.992635 L148.166076,507.029349 L127.649173,486.673688 Z" id="Path" fill="#00547B" mask="url(#mask-4)"></path>
                        </g>
                        <path d="M49.5905807,101.901639 C53.5411593,83.8246091 56.7834228,71.4311665 59.3173709,64.7213115 C68.3411767,40.8264155 77.5970704,29.2106582 80.4470479,27.9484301 C86.522675,25.2575921 97.2831128,36.2998844 91.1573894,49.1290498 C87.0735737,57.6818266 80.7240667,75.2726898 72.1088684,101.901639 C68.506951,99.78252 65.0353909,98.7229604 61.6941881,98.7229604 C58.3529853,98.7229604 54.3184495,99.78252 49.5905807,101.901639 Z" id="Path-2-Copy-2" fill="#00547B"></path>
                        <path d="M85.4060001,110.736405 C95.5577704,118.671793 102.153178,124.570103 105.192222,128.431337 C108.231266,132.292571 110.589713,135.383765 112.267565,137.704918 C110.039959,126.97841 108.926156,117.988906 108.926156,110.736405 C108.926156,99.8576545 110.713958,79.2866549 101.65455,83.0844542 C95.6149449,85.6163205 90.1987616,94.8336375 85.4060001,110.736405 Z" id="Path-3-Copy-2" fill="#00547B"></path>
                    </g>
                </g>
                <path d="M379.773573,163.097991 C343.591475,107.470358 297.146896,95.3000641 240.439836,126.587111 C155.379246,173.51768 233.008444,284.511862 287.244306,324.393195 C323.401547,350.980751 354.242692,375.192888 379.767738,397.029605 C402.344649,382.01502 431.804745,357.801382 468.148027,324.38869 C522.662951,274.269653 537.069116,244.529165 537.070587,185.554444 C537.072057,126.579723 493.921699,101.676509 453.588566,107.325104 C426.699811,111.090835 402.094813,129.681797 379.773573,163.097991 Z" id="Mask-Copy-11" fill="#00547B" transform="translate(369.866493, 251.787105) rotate(1.000000) translate(-369.866493, -251.787105) "></path>
                <path d="M226.752597,560.69612 C228.041786,563.654045 228.041786,568.793967 226.752597,576.115887 C225.463409,583.437807 224.785794,588.694075 224.719754,591.884691 C81.9685659,582.09773 7.27522069,495.04218 0.639718052,330.718041 C-9.31353591,84.2318334 97.7287404,4.9797679e-14 262.369472,3.87238059e-32 C427.010204,3.87238059e-32 386.462812,-4.84047573e-32 488.758092,3.87238059e-32 C591.053372,1.25852369e-31 748.377922,51.9586667 748.377922,243.520012 C748.377922,435.081356 749,317.694214 749,345.191646 C749,372.689078 719.356583,527.492338 628.914397,560.69612 C568.619607,582.831975 531.717783,593.228165 518.208924,591.884691 L518.208924,560.69612 C581.815766,555.193734 629.628586,535.224024 661.647386,500.786992 C709.675585,449.131444 726.116578,367.223726 717.896081,243.520012 C709.675585,119.816297 634.481168,29.4474422 488.758092,29.4474422 C436.442301,29.4474422 381.021201,29.4474422 262.369472,29.4474422 C143.717744,29.4474422 28.7453104,114.804225 28.7453104,243.520012 C28.7453104,439.331298 66.0635831,494.68763 104.890663,516.417658 C130.775384,530.904343 171.396028,545.66383 226.752597,560.69612 Z" id="Path-10" fill="#00547B"></path>
                <polygon id="Path-11" fill="#00547B" points="333.630932 570 407.344304 570 414 601 328 601"></polygon>
            </g>
            <text id="penda" font-family="HelveticaNeue-Bold, Helvetica Neue" font-size="500" font-weight="bold" letter-spacing="2.285714" fill="#00547B">
                <tspan x="897.535715" y="488">penda</tspan>
            </text>
        </g>
    </g>
</svg>