<?xml version="1.0" encoding="UTF-8"?>
<svg width="171px" height="42px" viewBox="0 0 171 42" version="1.1" xmlns="http://www.w3.org/2000/svg" xmlns:xlink="http://www.w3.org/1999/xlink">
    <!-- Generator: Sketch 52.6 (67491) - http://www.bohemiancoding.com/sketch -->
    <title>Group 2</title>
    <desc>Created with Sketch.</desc>
    <defs>
        <rect id="path-1" x="0" y="0" width="198" height="57"></rect>
    </defs>
    <g id="Page-1" stroke="none" stroke-width="1" fill="none" fill-rule="evenodd">
        <g id="Group-2" transform="translate(-12.000000, -9.000000)">
            <mask id="mask-2" fill="white">
                <use xlink:href="#path-1"></use>
            </mask>
            <g id="Mask"></g>
            <g mask="url(#mask-2)">
                <g transform="translate(12.000000, 9.000000)">
                    <path d="M63.05,38 L63.05,3 L71.15,3 C76.65,3 79.35,6.05 79.35,11.65 L79.35,15.1 C79.35,20.7 76.65,23.75 71.15,23.75 L68.55,23.75 L68.55,38 L63.05,38 Z M68.55,18.75 L71.15,18.75 C72.9,18.75 73.85,17.95 73.85,15.45 L73.85,11.3 C73.85,8.8 72.9,8 71.15,8 L68.55,8 L68.55,18.75 Z M85.207142,38 L85.207142,3 L100.207142,3 L100.207142,8 L90.707142,8 L90.707142,17.25 L98.257142,17.25 L98.257142,22.25 L90.707142,22.25 L90.707142,33 L100.207142,33 L100.207142,38 L85.207142,38 Z M106.214284,38 L106.214284,3 L113.114284,3 L118.464284,23.95 L118.564284,23.95 L118.564284,3 L123.464284,3 L123.464284,38 L117.814284,38 L111.214284,12.45 L111.114284,12.45 L111.114284,38 L106.214284,38 Z M130.421426,38 L130.421426,3 L138.821426,3 C144.321426,3 147.021426,6.05 147.021426,11.65 L147.021426,29.35 C147.021426,34.95 144.321426,38 138.821426,38 L130.421426,38 Z M135.921426,33 L138.721426,33 C140.471426,33 141.521426,32.1 141.521426,29.6 L141.521426,11.4 C141.521426,8.9 140.471426,8 138.721426,8 L135.921426,8 L135.921426,33 Z M152.028568,38 L157.728568,3 L165.178568,3 L170.878568,38 L165.378568,38 L164.378568,31.05 L164.378568,31.15 L158.128568,31.15 L157.128568,38 L152.028568,38 Z M158.778568,26.4 L163.728568,26.4 L161.278568,9.1 L161.178568,9.1 L158.778568,26.4 Z" id="PENDA" fill="#080B09"></path>
                    <path d="M23.603165,12.4824453 C27.4209002,2.47365279 33.189684,-0.862611387 40.9095165,2.47365279 C52.4892653,7.47804906 46.7604794,22.0333514 38.7298573,26.5461001 C30.6992352,31.0588487 28.6255576,32.3565453 26.1143613,36.2742525 C24.4402305,38.8860574 23.9962063,40.8964185 24.7822887,42.3053359 C22.5179129,34.7021047 24.1465425,28.2076559 29.6681777,22.8219892 C35.1898129,17.4363226 39.6014479,13.4040665 42.9030825,10.7252207 C36.1053796,13.1461422 31.0665751,16.2630595 27.7866692,20.0759725 C24.5067633,23.8888855 22.7986076,27.5095082 22.662202,30.9378405 C21.0293654,27.565151 19.5298343,25.058767 18.1636085,23.4186888 C16.11427,20.9585713 13.051171,18.3080081 11.5040719,14.5166144 C10.4726725,11.9890186 9.72833219,8.58789283 9.27105087,4.31323708 C7.78237016,7.40924988 7.78237016,10.8103757 9.27105087,14.5166144 C11.5040719,20.0759725 18.4919119,27.0355363 20.577057,31.6548944 C21.9671537,34.7344665 22.8102748,38.1525229 23.1064205,41.9090637 C21.3285873,36.1578336 18.4444053,32.1595321 14.4538745,29.9141593 C8.46807827,26.5461001 1.01546363,21.5998233 0.11147823,12.4824453 C-0.792507171,3.3650674 3.87296179,-1.09195858 11.5040719,0.227836567 C16.5914787,1.1077 20.6245097,5.19256959 23.603165,12.4824453 Z" id="Path-6" fill="#016FA2"></path>
                </g>
            </g>
        </g>
    </g>
</svg>