<?xml version="1.0" encoding="UTF-8"?>
<svg width="2071px" height="1832px" viewBox="0 0 2071 1832" version="1.1" xmlns="http://www.w3.org/2000/svg" xmlns:xlink="http://www.w3.org/1999/xlink">
    <!-- Generator: Sketch 52.6 (67491) - http://www.bohemiancoding.com/sketch -->
    <title>Group 6</title>
    <desc>Created with Sketch.</desc>
    <defs>
        <path d="M361.147968,809.816079 C393.360641,642.483037 409.466978,540.666149 409.466978,504.365415 C409.466978,449.914314 340.138248,381.015561 270.188721,317.026974 C200.239194,253.038387 194.573705,179.868285 194.573705,168.443094 C194.573705,157.017904 187.240015,115.317942 172.309555,115.317942 C162.355915,115.317942 155.889794,115.983594 152.911191,117.314897 C166.772051,69.3514823 166.772051,40.7391441 152.911191,31.477883 C132.119902,17.5859913 115.347277,33.6927298 113.457052,36.0460755 C112.196902,37.6149727 108.781033,44.4210952 103.209446,56.4644431 C93.6085563,26.5229531 84.4649055,9.26016523 75.778494,4.67607937 C62.7488768,-2.20004942 46.1906885,-4.33202397 40.3702482,23.1497865 C34.5498079,50.6315969 -4.36697311,179.150016 1.16720642,263.28902 C6.70138594,347.428023 27.1791426,429.196079 70.3180973,475.843774 C113.457052,522.49147 223.048276,563.579852 223.048276,625.277247 C223.048276,666.408844 209.618374,705.554029 182.75857,742.712804 C198.484132,762.547615 224.32714,779.57933 260.287594,793.807951 C296.248048,808.036571 329.868173,813.372614 361.147968,809.816079 Z" id="path-1"></path>
        <path d="M361.147968,809.816079 C393.360641,642.483037 409.466978,540.666149 409.466978,504.365415 C409.466978,449.914314 340.138248,381.015561 270.188721,317.026974 C200.239194,253.038387 194.573705,179.868285 194.573705,168.443094 C194.573705,157.017904 187.240015,115.317942 172.309555,115.317942 C162.355915,115.317942 155.889794,115.983594 152.911191,117.314897 C166.772051,69.3514823 166.772051,40.7391441 152.911191,31.477883 C132.119902,17.5859913 115.347277,33.6927298 113.457052,36.0460755 C112.196902,37.6149727 108.781033,44.4210952 103.209446,56.4644431 C93.6085563,26.5229531 84.4649055,9.26016523 75.778494,4.67607937 C62.7488768,-2.20004942 46.1906885,-4.33202397 40.3702482,23.1497865 C34.5498079,50.6315969 -4.36697311,179.150016 1.16720642,263.28902 C6.70138594,347.428023 27.1791426,429.196079 70.3180973,475.843774 C113.457052,522.49147 223.048276,563.579852 223.048276,625.277247 C223.048276,666.408844 209.618374,705.554029 182.75857,742.712804 C198.484132,762.547615 224.32714,779.57933 260.287594,793.807951 C296.248048,808.036571 329.868173,813.372614 361.147968,809.816079 Z" id="path-3"></path>
    </defs>
    <g id="Page-1" stroke="none" stroke-width="1" fill="none" fill-rule="evenodd">
        <g id="Group-6">
            <g id="Group-3-Copy-17" transform="translate(0.000000, 1021.000000)">
                <path d="M1189.04144,510.361809 C1179.96686,522.759414 1168.02682,537.779365 1153.22094,555.422111 C1138.41506,573.064856 1122.17659,590.230514 1104.50506,606.919598 C1086.83352,623.608682 1068.80405,637.794191 1050.41611,649.476549 C1032.02816,661.158908 1014.71509,667 998.476383,667 C988.446593,667 978.894556,665.211911 969.819984,661.635678 C960.745412,658.059446 953.342583,652.456766 947.611275,644.827471 C941.879966,637.198175 937.939751,627.304081 935.79051,615.144891 C933.641269,602.985701 934.238272,588.561781 937.581535,571.872697 C940.924798,557.567768 945.103815,543.501465 950.118709,529.673367 C955.133604,515.845269 961.342429,501.302142 968.745369,486.043551 C976.148309,470.78496 984.625742,454.215332 994.177923,436.334171 C1003.7301,418.453009 1014.71495,398.307203 1027.13278,375.896147 C1032.86409,366.359528 1037.52071,357.419081 1041.10278,349.074539 C1044.68484,340.729997 1046.95345,333.935258 1047.90867,328.690117 L1013.52099,358.015075 C993.461413,374.704159 974.95434,391.392993 957.999219,408.082077 C941.044098,424.771161 923.73103,443.128878 906.059496,463.155779 C889.820789,492.719299 875.253931,522.878406 862.358487,553.634003 C849.463043,584.389601 838.955802,615.502355 830.836448,646.973199 C828.926012,652.21834 823.911193,654.602459 815.791839,654.125628 C807.672485,653.648797 799.195052,651.383884 790.359285,647.330821 C781.523517,643.277758 773.643087,638.151901 766.717755,631.953099 C759.792424,625.754296 756.568612,619.555587 757.046221,613.356784 C761.344702,591.89939 766.956524,571.038348 773.881855,550.773032 C780.807186,530.507716 788.568217,510.481115 797.165179,490.69263 C805.762142,470.904144 814.955978,451.354368 824.746964,432.042714 C834.537949,412.731059 844.448188,393.300489 854.477978,373.750419 C865.940595,350.862532 877.164239,328.571019 888.149247,306.875209 C899.134254,285.1794 908.925093,264.318358 917.522056,244.291457 C923.253364,241.430471 930.297992,241.311266 938.65615,243.933836 C947.014308,246.556406 955.014139,250.728615 962.655884,256.450586 C970.297629,262.172558 976.984055,269.205709 982.715363,277.550251 C988.446672,285.894793 992.028686,294.596828 993.461513,303.656616 C1013.9987,286.490701 1034.77438,271.947575 1055.78918,260.026801 C1076.80398,248.106026 1097.81846,241.430493 1118.83326,240 C1125.51979,240 1132.08681,242.980149 1138.53453,248.940536 C1144.98226,254.900923 1150.59408,262.172486 1155.37017,270.755444 C1160.14626,279.338401 1163.25067,288.636466 1164.6835,298.649916 C1166.11632,308.663367 1165.16112,317.484607 1161.81786,325.113903 C1149.40002,349.432282 1137.22117,372.20062 1125.28095,393.419598 C1113.34072,414.638576 1103.07228,432.877087 1094.47532,448.135678 C1086.83358,461.486946 1079.78895,473.765159 1073.34123,484.970687 C1066.8935,496.176215 1061.16228,507.262368 1056.14739,518.229481 C1051.13249,529.196593 1046.59527,540.401953 1042.5356,551.845896 C1038.47592,563.289839 1034.77451,575.687259 1031.43124,589.038526 C1031.90885,588.084864 1033.58046,586.654393 1036.44611,584.747069 L1035.7297,584.747069 C1050.05797,577.594604 1067.72924,565.435597 1088.74404,548.269682 C1109.75884,531.103767 1131.72852,507.7394 1154.65376,478.175879 C1160.86268,470.546584 1166.7133,463.155815 1172.2058,456.00335 C1177.69831,448.850886 1183.07133,441.698528 1188.32503,434.546064 L1201.93682,413.80402 C1203.84725,411.419865 1207.42927,410.823835 1212.68297,412.015913 C1217.93667,413.20799 1222.83208,415.472903 1227.36937,418.81072 C1231.90666,422.148537 1235.48867,426.082334 1238.11552,430.612228 C1240.74237,435.142122 1240.62297,439.075919 1237.75732,442.413735 L1238.47373,440.98325 L1189.75785,509.646566 L1189.04144,510.361809 Z" id="penda" fill="#010201"></path>
                <path d="M813.935296,366.247479 C785.189821,409.171682 751.294624,444.941315 712.248688,473.557451 C673.202752,502.173586 631.402668,523.396902 586.847183,537.228034 C585.409909,550.105295 586.248306,562.26697 589.362399,573.713424 C592.476492,585.159879 599.542982,592.075341 610.562081,594.460019 L609.124814,593.744619 C618.227548,596.129297 629.366252,595.413904 642.541261,591.59842 C655.71627,587.782935 670.088792,580.986705 685.659257,571.209525 C701.229723,561.432345 717.638351,548.67451 734.885636,532.935635 C752.132921,517.196761 769.379947,498.596551 786.627232,477.13445 C795.729965,465.687996 804.473249,453.884017 812.857346,441.722159 C821.241443,429.560301 829.266101,417.994787 836.93156,407.025268 C842.201564,400.825106 848.070344,397.486606 854.538076,397.009671 C861.005807,396.532735 866.515274,398.082753 871.066641,401.65977 C875.618008,405.236787 878.492512,410.244535 879.69024,416.683166 C880.887968,423.121796 878.612319,430.394955 872.863224,438.50286 L854.897392,464.257253 C839.566472,485.719355 821.001965,509.446545 799.203314,535.439534 C777.404662,561.432524 752.612062,586.590499 724.82477,610.914215 C708.535668,624.268411 692.725894,634.641605 677.394975,642.034106 C662.064055,649.426608 647.931075,654.911285 634.995612,658.488302 C622.060148,662.065319 610.44236,664.211497 600.141898,664.9269 C589.841436,665.642304 581.816778,666 576.067684,666 C538.698567,666 511.750089,655.26911 495.221441,633.807008 C478.692793,612.344907 472.824013,583.013808 477.614926,545.812832 C481.926747,513.381211 492.346825,481.66547 508.875473,450.664657 C525.404121,419.663843 548.759468,386.040388 578.942217,349.793283 C589.482224,337.869893 602.657036,325.112058 618.467046,311.519393 C634.277057,297.926729 651.524083,285.407358 670.208642,273.960903 C688.8932,262.514449 708.415876,253.214345 728.777253,246.060311 C749.138631,238.906277 768.661306,235.567778 787.345865,236.044713 C806.988606,236.521649 821.840212,243.079415 831.901128,255.718208 C841.962044,268.357001 845.07609,285.407193 841.24336,306.869295 C839.806086,316.408006 836.811811,326.065807 832.260444,335.842987 C827.709077,345.620167 821.361214,355.99336 813.216663,366.962879 L813.935296,366.247479 Z M775.913095,308.929161 C758.664585,312.227589 741.655892,319.766738 724.886507,331.546836 C708.117122,343.326934 692.306224,357.227241 677.45334,373.248174 C662.600456,389.269107 648.94559,406.349993 636.488332,424.491344 C624.031075,442.632694 613.730036,459.71358 605.584906,475.734513 C639.602801,462.0696 671.224596,443.575123 700.451239,420.25053 C729.677882,396.925936 754.592023,369.007523 775.194411,336.494453 L775.194411,337.201255 C778.069163,333.431624 780.105415,329.662049 781.303228,325.892417 C782.501041,322.122786 783.579057,318.824408 784.537307,315.997185 C785.495558,309.40033 782.620849,307.044346 775.913095,308.929161 Z" id="Combined-Shape" fill="#000000"></path>
                <path d="M1479.95799,499.430102 C1471.85347,513.265881 1465.06007,527.101453 1459.5776,540.937232 C1454.09513,554.773011 1450.40048,566.700227 1448.49353,576.71924 C1447.54006,581.013102 1446.34824,583.63709 1444.91803,584.591281 L1452.06904,584.591281 C1466.37113,579.820323 1480.19629,571.94836 1493.54491,560.975156 C1506.89353,550.001952 1519.88441,537.478375 1532.51793,523.404048 C1545.15145,509.329721 1557.30804,494.301428 1568.98809,478.318718 C1580.66814,462.336008 1591.75209,446.949898 1602.2403,432.159927 C1606.05419,428.343161 1608.91457,425.00354 1610.82151,422.140965 C1612.72846,419.27839 1614.63538,416.177314 1616.54232,412.837643 C1618.44927,410.452164 1622.02474,409.855803 1627.26884,411.048543 C1632.51294,412.241282 1637.5186,414.507453 1642.28597,417.847124 C1647.05333,421.186795 1650.86717,425.122776 1653.72759,429.655187 C1656.58801,434.187597 1656.58801,438.123579 1653.72759,441.463249 L1632.98965,470.088856 L1632.98965,470.804496 C1612.48998,498.95315 1591.15634,526.743565 1568.98809,554.176575 C1546.81984,581.609585 1522.1491,606.298923 1494.97511,628.245331 C1490.68448,632.062098 1485.32128,636.236624 1478.88533,640.769034 C1472.44939,645.301444 1465.29845,649.595242 1457.4323,653.650557 C1449.56615,657.705871 1441.1042,661.045492 1432.0462,663.669519 C1422.98821,666.293546 1413.69199,667.366996 1404.15726,666.8899 C1381.2739,664.981517 1365.18429,656.871009 1355.88792,642.558134 C1346.59156,628.24526 1343.13527,610.354435 1345.51896,588.885122 C1324.06581,608.923147 1302.37462,626.217611 1280.44474,640.769034 C1258.51486,655.320457 1237.53877,662.834603 1217.51583,663.311699 C1199.39985,661.403316 1184.97878,656.274613 1174.25221,647.925436 C1163.52564,639.576259 1155.54042,629.676669 1150.29632,618.226369 C1145.05222,606.776069 1142.07266,594.491036 1141.35755,581.370901 C1140.64245,568.250766 1141,555.965732 1142.43021,544.515433 C1144.33715,534.019324 1146.48243,525.431728 1148.86612,518.752387 C1153.63348,501.099841 1161.49952,481.77775 1172.46446,460.785534 C1183.4294,439.793317 1196.53946,418.801416 1211.79503,397.8092 C1227.05059,376.816983 1243.85531,356.540715 1262.20966,336.979786 C1280.56402,317.418857 1299.99074,300.005121 1320.49041,284.738054 C1340.99008,269.470988 1361.84699,257.305227 1383.06177,248.240406 C1404.27655,239.175585 1425.37182,234.643243 1446.34823,234.643243 C1452.5458,234.643243 1458.50492,235.120332 1464.22576,236.074523 C1469.9466,237.028715 1476.14408,238.459981 1482.81839,240.368364 C1495.69028,245.139323 1505.46323,253.011286 1512.13754,263.98449 L1518.57345,254.681168 L1545.7473,213.174038 C1557.66571,195.521493 1569.2264,177.153579 1580.42971,158.069746 C1591.63302,138.985913 1602.12106,120.260183 1611.89416,101.891993 C1621.66726,83.523804 1630.48676,65.8715233 1638.35291,48.9346215 C1646.21906,31.9977196 1653.01246,16.6116101 1658.73329,2.77583111 C1665.88434,-1.04093549 1674.70384,-0.921663326 1685.19204,3.13365119 C1695.68024,7.18896571 1705.21483,13.3911184 1713.79609,21.7402954 C1722.37735,30.0894723 1728.81319,39.9890622 1733.10382,51.439362 C1737.39445,62.8896618 1736.91772,73.8627012 1731.67362,84.3588094 C1728.8132,90.0839593 1723.56918,99.6257327 1715.94139,112.984416 C1708.31361,126.343099 1699.37493,141.371392 1689.1251,158.069746 C1678.87526,174.7681 1667.91049,192.301108 1656.23044,210.669298 C1644.55039,229.037487 1633.46644,246.331951 1622.97823,262.553209 L1597.94969,301.913418 L1598.66479,301.197778 C1578.64186,331.254815 1558.61922,362.504123 1538.59629,394.946639 C1518.57335,427.389155 1499.50418,462.216628 1481.38819,499.430102 L1479.95799,499.430102 Z M1274.79726,573.630183 C1281.48614,571.734647 1290.32489,566.40353 1301.31378,557.636674 C1312.30266,548.869817 1323.76914,538.444523 1335.71358,526.360478 C1347.65802,514.276433 1359.48283,501.481753 1371.18838,487.976056 C1382.89393,474.470358 1393.04654,462.268025 1401.64654,451.36869 L1413.8298,427.20072 C1430.55201,395.450484 1448.94617,363.937662 1469.01282,332.66131 C1468.05727,325.553048 1466.02674,319.392647 1462.92119,314.179922 C1459.81564,308.967196 1454.20183,305.886996 1446.07962,304.939227 C1428.40185,304.465343 1410.24658,310.744214 1391.61326,323.776027 C1372.97994,336.807841 1355.06356,353.275067 1337.86357,373.1782 C1320.66358,393.081333 1305.0166,414.405799 1290.92217,437.152237 C1276.82773,459.898675 1265.71957,480.512326 1257.59736,498.993806 C1255.20847,504.206532 1252.81962,510.722341 1250.43073,518.541429 C1248.04185,526.360517 1246.36965,534.061019 1245.41409,541.643165 C1244.45854,546.85589 1243.98077,551.831599 1243.98077,556.57044 C1243.98077,561.309281 1245.05575,565.337236 1247.20575,568.654425 C1249.35575,571.971613 1252.5807,574.10406 1256.8807,575.051828 C1261.18069,575.999597 1267.15282,575.52572 1274.79726,573.630183 Z" id="Combined-Shape" fill="#010201"></path>
                <path d="M1933.21944,361.977845 C1932.74351,364.824816 1930.9588,367.078635 1927.86527,368.739368 C1924.77174,370.400101 1921.08335,371.586321 1916.79999,372.298064 C1912.51664,373.009807 1908.11437,373.365673 1903.59305,373.365673 C1899.07173,373.365673 1895.14538,372.653941 1891.81388,371.230455 C1898.47688,375.500912 1904.66385,380.483037 1910.37499,386.176979 C1916.08613,391.870922 1920.84534,398.157889 1924.65277,405.038069 C1928.4602,411.91825 1930.95878,418.916949 1932.1486,426.034377 C1933.33842,433.151805 1932.50556,440.031882 1929.64999,446.674815 C1927.74628,449.996281 1925.60463,453.673564 1923.22499,457.706773 C1920.84535,461.739982 1918.46575,465.891753 1916.0861,470.162209 C1910.85089,479.177618 1905.49678,488.904624 1900.02361,499.343518 C1894.55043,509.782413 1889.43428,519.983906 1884.67499,529.948306 C1879.91571,539.912705 1875.7514,549.283844 1872.18194,558.062005 C1868.61248,566.840167 1866.35185,574.313354 1865.39999,580.481791 C1865.39999,581.430782 1865.04305,582.142514 1864.32916,582.617009 C1863.61527,583.091504 1863.02037,583.565992 1862.54444,584.040488 L1867.54166,584.040488 C1881.81951,579.295536 1895.62122,571.466482 1908.94722,560.553093 C1922.27321,549.639703 1935.24206,537.184391 1947.85416,523.186783 C1960.46626,509.189174 1972.60225,494.2428 1984.26249,478.347211 C1995.92273,462.451622 2006.9879,447.149381 2017.45832,432.44003 C2021.26575,428.644068 2024.12128,425.322652 2026.02499,422.475681 C2027.9287,419.628709 2029.83239,416.544537 2031.7361,413.22307 C2033.63981,410.850594 2037.20922,410.257484 2042.44443,411.443722 C2047.67965,412.62996 2052.67682,414.883779 2057.4361,418.205245 C2062.19538,421.526711 2066.00275,425.441238 2068.85832,429.948943 C2071.71389,434.456647 2071.71389,438.371174 2068.85832,441.69264 L2048.15555,470.162209 L2048.15555,470.873949 C2027.69063,498.869165 2006.39316,526.508096 1984.26249,553.79157 C1962.13183,581.075044 1937.50291,605.629802 1910.37499,627.456581 C1906.09164,631.252543 1900.73753,635.404313 1894.31249,639.912018 C1887.88746,644.419722 1880.74864,648.690115 1872.89583,652.723324 C1865.04301,656.756533 1856.59541,660.07795 1847.55277,662.687674 C1838.51014,665.297397 1829.22967,666.364995 1819.71111,665.8905 C1796.86655,663.992519 1780.80421,655.926222 1771.52361,641.691366 C1762.24301,627.45651 1758.79258,609.663207 1761.17222,588.310923 C1739.75545,608.239721 1718.10103,625.439914 1696.20833,639.912018 C1674.31563,654.384121 1653.3751,661.857309 1633.38611,662.331804 C1615.30084,660.433823 1600.90422,655.333076 1590.19584,647.02941 C1579.48745,638.725744 1571.51577,628.880117 1566.28056,617.492232 C1561.04535,606.104347 1558.07084,593.886279 1557.35695,580.837661 C1556.64306,567.789043 1557,555.570975 1558.42778,544.18309 C1560.33149,533.744196 1562.47314,525.20341 1564.85278,518.560478 C1569.61206,501.004155 1577.46476,481.787388 1588.41111,460.909599 C1599.35746,440.031811 1612.4453,419.154335 1627.675,398.276546 C1642.90471,377.398758 1659.68093,357.233014 1678.00417,337.778711 C1696.32741,318.324408 1715.72119,301.005593 1736.18611,285.821747 C1756.65103,270.6379 1777.47258,258.538454 1798.65139,249.523046 C1819.83019,240.507637 1840.88971,236 1861.83055,236 C1868.01762,236 1873.96663,236.474488 1879.67777,237.423478 C1885.38891,238.372469 1891.57589,239.795933 1898.23888,241.693914 C1909.66116,245.489875 1918.34672,251.539599 1924.29583,259.843264 C1930.24493,268.14693 1934.29026,277.873936 1936.43194,289.024573 C1938.57361,300.17521 1939.2875,312.037412 1938.5736,324.611535 C1937.85971,337.185658 1936.07501,349.64097 1933.21944,361.977845 Z M1848.06723,362.004677 C1852.82148,359.63906 1858.40763,359.165944 1864.82587,360.585314 C1871.2441,362.004684 1877.78109,364.606824 1884.43704,368.39181 C1882.05991,366.026194 1881.34679,363.424054 1882.29764,360.585314 C1882.77306,359.165944 1882.89192,357.510037 1882.6542,355.617544 C1882.41649,353.72505 1882.53535,351.832585 1883.01077,349.940092 C1883.48619,345.208858 1883.7239,340.241138 1883.7239,335.036781 C1883.7239,329.832424 1883.01078,324.982982 1881.5845,320.48831 C1880.15823,315.993638 1877.78114,312.326987 1874.45317,309.488247 C1871.1252,306.649507 1866.60873,304.9936 1860.90363,304.520477 C1843.31292,304.047353 1825.24705,310.316144 1806.70549,323.327036 C1788.16393,336.337928 1770.33577,352.778718 1753.22048,372.649899 C1736.10519,392.52108 1720.53527,413.811312 1706.51024,436.521233 C1692.48521,459.231154 1681.43176,479.811711 1673.34954,498.263522 C1670.97241,503.467879 1668.59532,509.973228 1666.2182,517.779763 C1663.84108,525.586298 1662.17712,533.274438 1661.22627,540.844411 C1660.27542,546.048768 1659.8,551.016489 1659.8,555.747723 C1659.8,560.478956 1660.86969,564.500444 1663.0091,567.812308 C1665.14851,571.124171 1668.35758,573.253194 1672.6364,574.199441 C1676.91522,575.145688 1682.85794,574.672572 1690.46474,572.780078 C1697.59611,570.887585 1706.62904,565.446748 1717.56381,556.457404 C1728.49858,547.46806 1740.02745,536.941224 1752.15078,524.876578 C1764.27411,512.811932 1776.15955,499.919514 1787.80745,486.198937 C1799.45536,472.47836 1809.32027,460.177337 1817.40249,449.2955 C1824.53386,435.101799 1831.07085,421.263149 1837.01366,407.779133 C1842.95647,394.295117 1847.11637,382.822048 1849.4935,373.359581 L1848.06723,362.004677 Z" id="Combined-Shape" fill="#010201"></path>
                <path d="M222.310756,242.012957 C228.047837,239.157299 234.740997,238.800347 242.390437,240.942091 C250.039878,243.083835 257.689204,246.891322 265.338645,252.364666 C272.988085,257.838011 279.800766,264.38213 285.776892,271.997218 C291.753017,279.612306 295.697201,287.703217 297.609561,296.270191 C322.470243,278.184356 347.808635,263.549328 373.625497,252.364666 C399.442359,241.180005 423.107461,237.015566 444.621512,239.871224 C459.442304,242.25094 471.513896,246.77233 480.836652,253.435533 C490.159408,260.098735 497.21113,268.427613 501.99203,278.422417 C506.772931,288.41722 509.402386,299.48273 509.880476,311.619277 C510.358566,323.755824 509.402401,336.487109 507.011951,349.813514 C503.18723,372.182836 496.733112,393.599951 487.649401,414.065501 C474.26288,443.573969 457.171417,472.487074 436.374501,500.805684 C415.577584,529.124294 392.868648,554.705848 368.247011,577.551113 C343.625374,600.396378 317.689378,619.31483 290.438246,634.307035 C263.187114,649.29924 236.414473,658.223038 210.119521,661.078696 C188.127379,660.602753 170.677355,655.724411 157.768924,646.443522 C144.860493,637.162633 135.776918,625.621187 130.517928,611.81884 C123.824667,626.573073 118.087673,641.327086 113.306773,656.08132 C108.525872,670.835553 103.984085,686.065502 99.6812746,701.771622 C95.3784642,717.477742 91.3147599,733.659562 87.4900396,750.317568 C83.6653192,766.975574 79.3625734,784.347233 74.5816731,802.433068 C73.1474029,808.144385 68.3665743,811 60.2390436,811 C52.111513,811 43.6255421,808.977272 34.7808764,804.931757 C25.9362107,800.886241 17.9283227,795.76993 10.7569721,789.582671 C3.5856215,783.395412 0,776.970277 0,770.307075 C1.91236015,734.135405 8.12743742,699.035133 18.6454183,665.005207 C29.1633991,630.97528 42.0716365,597.540784 57.3705177,564.700716 C72.669399,531.860647 89.4022993,499.259038 107.569721,466.894913 C125.737142,434.530787 143.904291,401.691211 162.071713,368.375199 C173.067784,345.529934 183.944169,323.398915 194.701195,301.981479 C205.45822,280.564043 214.661316,260.574735 222.310756,242.012957 Z M193.70345,507.144139 C192.753861,508.094817 192.279073,508.807814 192.279073,509.283153 C191.329484,512.135186 190.498606,515.224842 189.786414,518.552213 C189.074222,521.879585 188.243344,525.206907 187.293755,528.534278 C185.869372,538.991732 186.344159,548.379532 188.718132,556.697962 C191.092105,565.016391 197.739129,569.650874 208.659403,570.601552 C219.104883,571.55223 231.211963,568.224908 244.981005,560.619487 C258.750047,553.014066 272.993669,542.675602 287.7123,529.603785 C302.430931,516.531968 317.149342,501.440187 331.867973,484.32799 C346.586604,467.215794 359.999349,449.98502 372.10661,432.635154 C384.213871,415.285288 394.303103,398.29218 402.374611,381.655322 C410.446118,365.018464 415.66878,350.520848 418.042753,338.162039 C420.416725,323.426536 415.906245,315.821229 404.511176,315.345891 C394.065696,314.870552 382.5521,316.534213 369.970045,320.336923 C357.387989,324.139634 344.450032,329.724781 331.155785,337.092532 C317.861537,344.460284 304.567489,353.372753 291.273242,363.830206 C277.978994,374.28766 265.634521,385.457954 254.239452,397.341424 L223.971451,451.886279 C213.288574,471.137501 203.436734,489.556603 194.415638,507.144139 L193.70345,507.144139 Z" id="Combined-Shape" fill="#010201"></path>
            </g>
            <g id="Group-2-Copy-19" transform="translate(579.000000, 291.000000)">
                <g id="Group-3">
                    <g id="Bitmap-Copy-5">
                        <mask id="mask-2" fill="white">
                            <use xlink:href="#path-1"></use>
                        </mask>
                        <g id="Mask"></g>
                        <path d="M205.368315,783.119764 C253.45268,678.331187 261.614709,609.542599 229.854405,576.754 C182.213947,527.571102 72.8497529,483.301405 52.6996082,399.092866 C32.5494635,314.884326 9.59550938,262.97444 25.5597771,167.196637 C41.5240449,71.4188346 57.550784,41.0887236 65.9900945,41.0887236 C69.4605036,41.0887236 77.4989562,40.291897 81,58.0136608 C86.012764,83.3875278 84.0660344,134.059374 65.9900945,171.789498 C35.2894515,235.871313 99.4986115,340.273388 123.515583,357.108341 C139.526898,368.331644 166.811142,398.3422 205.368315,447.140011 C180.321776,399.017182 164.018044,370.444844 156.457118,361.422997 C145.11573,347.890227 77.3825958,258.78647 77.3825958,222.432955 C77.3825958,186.07944 88.985228,174.938984 108.223562,184.09058 C127.461896,193.242176 201.828351,296.778508 269.834087,347.935687 C337.839823,399.092866 396.332877,455.942752 388.600629,510.57043 C380.86838,565.198109 363.416159,693.3921 345.109216,748.432373 C332.904587,785.125888 324.162385,811.877946 318.88261,828.688546 L238.376926,815.874607 L205.368315,783.119764 Z" id="Path" fill="#000000" mask="url(#mask-2)"></path>
                    </g>
                    <path d="M79.7837838,163.972678 C86.1396705,134.88444 91.3559846,114.941818 95.432726,104.144809 C109.950672,65.6948868 124.842012,47.0036584 129.427197,44.972573 C139.201967,40.642673 156.513893,58.4111236 146.658526,79.0548797 C140.088281,92.8173838 129.872879,121.123316 116.012321,163.972678 C110.217378,160.562746 104.63216,158.857779 99.2566672,158.857779 C93.8811746,158.857779 87.3902134,160.562746 79.7837838,163.972678 Z" id="Path-2-Copy-2" stroke="#979797" fill="#000000"></path>
                    <path d="M137.405405,178.188938 C153.738077,190.957984 164.349095,200.449115 169.238459,206.66233 C174.127824,212.875546 177.922211,217.849669 180.621622,221.584699 C177.037739,204.324386 175.245797,189.859132 175.245797,178.188938 C175.245797,160.683646 178.122102,127.582296 163.546878,133.693437 C153.830062,137.767532 145.116238,152.599365 137.405405,178.188938 Z" id="Path-3-Copy-2" stroke="#979797" fill="#000000"></path>
                </g>
                <g id="Group-3-Copy-18" transform="translate(704.000000, 405.500000) scale(-1, 1) translate(-704.000000, -405.500000) translate(499.000000, 0.000000)">
                    <g id="Bitmap-Copy-5">
                        <mask id="mask-4" fill="white">
                            <use xlink:href="#path-3"></use>
                        </mask>
                        <g id="Mask"></g>
                        <path d="M205.368315,783.119764 C253.45268,678.331187 261.614709,609.542599 229.854405,576.754 C182.213947,527.571102 72.8497529,483.301405 52.6996082,399.092866 C32.5494635,314.884326 9.59550938,262.97444 25.5597771,167.196637 C41.5240449,71.4188346 57.550784,41.0887236 65.9900945,41.0887236 C69.4605036,41.0887236 77.4989562,40.291897 81,58.0136608 C86.012764,83.3875278 84.0660344,134.059374 65.9900945,171.789498 C35.2894515,235.871313 99.4986115,340.273388 123.515583,357.108341 C139.526898,368.331644 166.811142,398.3422 205.368315,447.140011 C180.321776,399.017182 164.018044,370.444844 156.457118,361.422997 C145.11573,347.890227 77.3825958,258.78647 77.3825958,222.432955 C77.3825958,186.07944 88.985228,174.938984 108.223562,184.09058 C127.461896,193.242176 201.828351,296.778508 269.834087,347.935687 C337.839823,399.092866 396.332877,455.942752 388.600629,510.57043 C380.86838,565.198109 363.416159,693.3921 345.109216,748.432373 C332.904587,785.125888 324.162385,811.877946 318.88261,828.688546 L238.376926,815.874607 L205.368315,783.119764 Z" id="Path" fill="#000000" mask="url(#mask-4)"></path>
                    </g>
                    <path d="M79.7837838,163.972678 C86.1396705,134.88444 91.3559846,114.941818 95.432726,104.144809 C109.950672,65.6948868 124.842012,47.0036584 129.427197,44.972573 C139.201967,40.642673 156.513893,58.4111236 146.658526,79.0548797 C140.088281,92.8173838 129.872879,121.123316 116.012321,163.972678 C110.217378,160.562746 104.63216,158.857779 99.2566672,158.857779 C93.8811746,158.857779 87.3902134,160.562746 79.7837838,163.972678 Z" id="Path-2-Copy-2" stroke="#979797" fill="#000000"></path>
                    <path d="M137.405405,178.188938 C153.738077,190.957984 164.349095,200.449115 169.238459,206.66233 C174.127824,212.875546 177.922211,217.849669 180.621622,221.584699 C177.037739,204.324386 175.245797,189.859132 175.245797,178.188938 C175.245797,160.683646 178.122102,127.582296 163.546878,133.693437 C153.830062,137.767532 145.116238,152.599365 137.405405,178.188938 Z" id="Path-3-Copy-2" stroke="#979797" fill="#000000"></path>
                </g>
            </g>
            <path d="M1049.9806,262.769399 C991.768156,173.145688 917.047051,153.536138 825.817283,203.940749 C688.972629,279.547666 813.867903,458.374662 901.124833,522.630069 C959.29612,565.467008 1008.91471,604.47667 1049.9806,639.659058 C1086.30201,615.469809 1133.69681,576.460146 1192.16499,522.630069 C1279.86727,441.884954 1303.04289,393.970321 1303.04289,298.955535 C1303.04289,203.940749 1233.62106,163.817189 1168.73284,172.916082 C1125.47403,178.982011 1085.88995,208.933117 1049.9806,262.769399 Z" id="Mask-Copy-11" fill="#000000" transform="translate(1034.042893, 405.659058) rotate(1.000000) translate(-1034.042893, -405.659058) "></path>
            <path d="M803.508087,904.440093 C805.580477,909.211423 805.580477,917.502459 803.508087,929.313202 C801.435697,941.123945 800.346422,949.602654 800.240261,954.74933 C570.765658,938.962312 450.695023,798.535926 440.028356,533.470173 C424.028356,135.871544 596.100367,7.05604572e-13 860.762729,6.25277607e-13 C1125.42509,6.25277607e-13 1060.24457,6.25277607e-13 1224.68572,6.25277607e-13 C1389.12686,6.25277607e-13 1642.02836,83.8127815 1642.02836,392.813958 C1642.02836,701.815134 1643.02836,512.461874 1643.02836,556.817059 C1643.02836,601.172243 1595.37613,850.880186 1449.98901,904.440093 C1353.06426,940.146698 1293.74404,956.916443 1272.02836,954.74933 L1272.02836,904.440093 C1374.27728,895.564378 1451.13708,863.351911 1502.60776,807.80269 C1579.81379,724.478859 1606.24292,592.356268 1593.02836,392.813958 C1579.81379,193.271648 1458.93767,47.5006807 1224.68572,47.5006807 C1140.58732,47.5006807 1051.4971,47.5006807 860.762729,47.5006807 C670.028356,47.5006807 485.208503,185.186842 485.208503,392.813958 C485.208503,708.670572 545.198167,797.964013 607.613262,833.015992 C649.223325,856.383977 714.5216,880.192011 803.508087,904.440093 Z" id="Path-10" fill="#000000"></path>
            <polygon id="Path-11" fill="#000000" points="976.016729 920 1094.05288 920 1104.71055 970.845044 967 970.845044"></polygon>
        </g>
    </g>
</svg>